<?xml version="1.0" encoding="utf-8"?>
<!-- Generator: Adobe Illustrator 21.1.0, SVG Export Plug-In . SVG Version: 6.00 Build 0)  -->
<svg version="1.1" id="Layer_1" xmlns="http://www.w3.org/2000/svg" xmlns:xlink="http://www.w3.org/1999/xlink" x="0px" y="0px"
	 width="40px" height="40px" viewBox="0 0 40 40" enable-background="new 0 0 40 40" xml:space="preserve">
<g>
	<g>
		<circle id="XMLID_12_" fill="#4285F4" cx="20" cy="20" r="8"/>
		<path fill="#EA4335" d="M20,40H8.44C3.78,40,0,36.22,0,31.56L0,20h4v11.56C4,34.01,5.99,36,8.44,36H20V40z"/>
		<path fill="#FBBC05" d="M20,0L8.44,0C3.78,0,0,3.78,0,8.44L0,20l4,0V8.44C4,5.99,5.99,4,8.44,4H20V0z"/>
		<path fill="#EA4335" d="M20,0l11.56,0C36.22,0,40,3.78,40,8.44V20h-4V8.44C36,5.99,34.01,4,31.56,4H20V0z"/>
		<g>
			<circle fill="#34A853" cx="32" cy="32" r="4"/>
		</g>
	</g>
</g>
<g>
</g>
<g>
</g>
<g>
</g>
<g>
</g>
<g>
</g>
<g>
</g>
<g>
</g>
<g>
</g>
<g>
</g>
<g>
</g>
<g>
</g>
<g>
</g>
<g>
</g>
<g>
</g>
<g>
</g>
</svg>
