<?xml version="1.0" standalone="no"?>
<!DOCTYPE svg PUBLIC "-//W3C//DTD SVG 20010904//EN"
 "http://www.w3.org/TR/2001/REC-SVG-20010904/DTD/svg10.dtd">
<svg version="1.0" xmlns="http://www.w3.org/2000/svg"
 width="1000.000000pt" height="1000.000000pt" viewBox="0 0 1000.000000 1000.000000"
 preserveAspectRatio="xMidYMid meet">
<metadata>
Created by potrace 1.11, written by Peter Selinger 2001-2013
</metadata>
<g transform="translate(0.000000,1000.000000) scale(0.100000,-0.100000)"
fill="#000000" stroke="none">
<path d="M4907 9584 c-1 -1 -71 -5 -155 -8 -84 -4 -160 -9 -170 -10 -9 -2 -48
-7 -87 -10 -106 -11 -305 -42 -444 -71 -808 -168 -1564 -558 -2169 -1120 -642
-596 -1087 -1338 -1317 -2198 -14 -53 -28 -107 -30 -120 -3 -12 -12 -57 -21
-100 -8 -42 -17 -90 -20 -105 -2 -15 -9 -49 -14 -77 -5 -27 -12 -72 -16 -100
-3 -27 -8 -58 -9 -67 -2 -9 -7 -48 -10 -85 -4 -37 -8 -81 -10 -98 -6 -47 -18
-331 -18 -415 0 -97 12 -388 18 -420 2 -14 6 -47 9 -75 10 -111 62 -440 71
-454 2 -4 6 -24 9 -46 6 -36 24 -109 70 -280 39 -143 142 -427 211 -580 36
-81 180 -369 213 -425 455 -793 1164 -1456 1962 -1837 74 -35 143 -68 152 -74
45 -24 437 -172 488 -184 8 -2 62 -17 120 -33 58 -17 137 -38 175 -47 129 -30
160 -37 180 -41 33 -7 148 -26 185 -31 19 -2 58 -8 85 -13 125 -22 419 -42
640 -42 192 0 478 17 581 36 11 2 45 7 78 11 54 6 68 8 121 19 11 2 40 7 65
11 65 10 294 63 375 86 648 186 1190 477 1685 907 66 58 297 286 361 357 143
161 353 453 474 660 292 497 506 1133 581 1725 4 30 8 62 9 70 1 8 5 51 10 95
4 44 9 94 11 110 24 230 23 677 -2 865 -18 135 -58 368 -74 430 l-9 35 -2136
0 -2135 0 0 -887 0 -888 1226 0 1227 0 -7 -38 c-9 -58 -53 -205 -92 -311 -261
-700 -880 -1195 -1699 -1357 -56 -11 -135 -24 -180 -29 -27 -4 -61 -8 -74 -10
-156 -26 -608 -25 -760 0 -13 2 -43 7 -65 10 -44 7 -49 8 -111 19 -108 21
-345 88 -410 115 -11 5 -60 26 -110 46 -111 46 -229 105 -313 156 -35 22 -66
39 -68 39 -13 0 -257 180 -344 255 -70 59 -250 246 -307 317 -32 40 -64 79
-71 86 -31 34 -186 277 -236 372 -116 221 -223 518 -260 725 -13 67 -25 142
-30 175 -27 186 -27 553 -1 730 51 343 136 612 282 890 79 152 244 406 293
450 3 3 23 28 45 55 67 84 255 267 365 355 308 246 644 414 1017 510 148 39
185 45 436 78 75 10 434 9 507 -2 25 -3 63 -8 85 -10 35 -4 159 -26 235 -41
62 -12 244 -66 332 -98 246 -90 506 -234 705 -389 35 -26 66 -48 70 -48 5 0
306 298 671 663 l663 663 -57 50 c-184 159 -469 359 -714 499 -441 254 -979
449 -1460 529 -19 3 -46 8 -60 11 -14 3 -45 7 -70 10 -25 3 -54 8 -65 10 -11
2 -51 7 -90 10 -38 4 -81 8 -94 10 -48 8 -497 24 -504 19z"/>
</g>
</svg>
